<?xml version="1.0" encoding="UTF-8"?>
<svg id="Ebene_2" data-name="Ebene 2" xmlns="http://www.w3.org/2000/svg" viewBox="0 0 943.94 242.48">
  <defs>
    <style>
      .cls-1 {
        fill: #e1b369;
      }

      .cls-2 {
        fill: #bacebb;
      }
    </style>
  </defs>
  <g id="Ebene_1-2" data-name="Ebene 1">
    <g>
      <g>
        <path class="cls-1" d="M59.34,82.32v36.12c0,1.09-.89,1.98-1.98,1.98H1.98c-1.16,0-2.07-.99-1.97-2.15L6.7,39.48s0-.09.02-.13L11.95,5.14c.15-.97.98-1.68,1.96-1.68h94.81c.98,0,1.81.71,1.96,1.68l5.24,34.2s.01.09.02.13l6.69,78.8c.1,1.15-.81,2.15-1.97,2.15h-55.38c-1.09,0-1.98-.89-1.98-1.98v-36.12c0-1.09-.89-1.98-1.98-1.98h0c-1.09,0-1.98.89-1.98,1.98ZM63.29,65.47v-28.9c0-1.09-.89-1.98-1.98-1.98h0c-1.09,0-1.98.89-1.98,1.98v28.9c0,1.09.89,1.98,1.98,1.98h0c1.09,0,1.98-.89,1.98-1.98Z"/>
        <path class="cls-1" d="M196.8,84.3h0c-1.16,0-2.1.94-2.1,2.1v31.92c0,1.16-.94,2.1-2.1,2.1h-55.32c-1.16,0-2.1-.94-2.1-2.1V5.56c0-1.16.94-2.1,2.1-2.1h64.81c22.59,0,37.95,3.24,46.1,9.72,8.14,6.48,12.21,15.85,12.21,28.12,0,16.15-2.8,26.9-8.41,32.25-.54.52-.74,1.3-.55,2.02l11.18,42.22c.35,1.33-.65,2.64-2.03,2.64h-58.54c-1.13,0-2.06-.9-2.1-2.03l-1.07-32.06c-.04-1.13-.97-2.03-2.1-2.03ZM196.94,31.5c-1.15,0-1.78.63-1.89,1.89-.12,1.26-.17,6.19-.17,14.79s.06,13.39.17,14.71c.11,1.32.75,1.98,1.89,1.98s1.78-.66,1.89-1.98c.11-1.32.17-6.22.17-14.71s-.06-13.53-.17-14.79c-.12-1.26-.75-1.89-1.89-1.89Z"/>
        <path class="cls-1" d="M377.02,15.67v18.58c0,6.74-5.47,12.21-12.21,12.21h0c-6.74,0-12.21,5.47-12.21,12.21v49.54c0,6.74-5.47,12.21-12.21,12.21h-35.26c-6.74,0-12.21-5.47-12.21-12.21v-49.54c0-6.74-5.47-12.21-12.21-12.21h0c-6.74,0-12.21-5.47-12.21-12.21V15.67c0-6.74,5.47-12.21,12.21-12.21h84.11c6.74,0,12.21,5.47,12.21,12.21Z"/>
        <path class="cls-1" d="M418.64,3.46h0c16.43,0,29.76,13.32,29.76,29.76v57.45c0,16.43-13.32,29.76-29.76,29.76h0c-16.43,0-29.76-13.32-29.76-29.76v-57.45c0-16.43,13.32-29.76,29.76-29.76Z"/>
        <path class="cls-1" d="M587.55,79.31c0,14.22-4.07,25.2-12.21,32.94-8.14,7.74-25.23,11.61-51.26,11.61s-43.43-3.87-51.51-11.61c-4.93-4.72-8.29-11.48-10.09-20.27-2.04-10,5.55-19.37,15.75-19.37h27.8c8.74,0,15.9,6.99,16.08,15.73.02,1.14.05,1.86.09,2.16.11,1.26.74,1.89,1.89,1.89s1.78-.63,1.89-1.89c0-.55.01-2.55.04-5.99.07-8.86-7.04-16.11-15.89-16.21l-13.39-.16c-23.97-.34-36.01-9.69-36.12-28.04,0-11.46,4.07-21.01,12.21-28.64C480.96,3.84,498.05.02,524.08.02c25.22-.34,42.11,3.35,50.65,11.09,4.83,4.38,8.26,10.35,10.29,17.9,2.73,10.2-4.88,20.23-15.44,20.29l-27.44.15c-8.9.05-16.16-7.15-16.17-16.05,0-.01,0-.02,0-.03-.12-1.26-.75-1.89-1.89-1.89s-1.78.63-1.89,1.89c-.05.41-.08,1.75-.11,4.01-.11,8.96,7.12,16.29,16.08,16.29h21.7c18.35,0,27.58,8.54,27.69,25.63Z"/>
        <path class="cls-1" d="M705.19,15.67v18.58c0,6.74-5.47,12.21-12.21,12.21h0c-6.74,0-12.21,5.47-12.21,12.21v49.54c0,6.74-5.47,12.21-12.21,12.21h-35.26c-6.74,0-12.21-5.47-12.21-12.21v-49.54c0-6.74-5.47-12.21-12.21-12.21h0c-6.74,0-12.21-5.47-12.21-12.21V15.67c0-6.74,5.47-12.21,12.21-12.21h84.11c6.74,0,12.21,5.47,12.21,12.21Z"/>
        <path class="cls-1" d="M772.62,82.32v36.12c0,1.09-.89,1.98-1.98,1.98h-55.38c-1.16,0-2.07-.99-1.97-2.15l6.69-78.8s0-.09.02-.13l5.24-34.2c.15-.97.98-1.68,1.96-1.68h94.82c.98,0,1.81.71,1.96,1.68l5.24,34.2s.01.09.02.13l6.69,78.8c.1,1.15-.81,2.15-1.97,2.15h-55.38c-1.09,0-1.98-.89-1.98-1.98v-36.12c0-1.09-.89-1.98-1.98-1.98h0c-1.09,0-1.98.89-1.98,1.98ZM776.57,65.47v-28.9c0-1.09-.89-1.98-1.98-1.98h0c-1.09,0-1.98.89-1.98,1.98v28.9c0,1.09.89,1.98,1.98,1.98h0c1.09,0,1.98-.89,1.98-1.98Z"/>
      </g>
      <g>
        <path class="cls-2" d="M638.12,108.48c-3.37,2.89-7.19,6.55-11.45,10.97-4.26,4.42-8.72,9.28-13.38,14.58-4.66,5.3-9.48,11.01-14.46,17.11-4.98,6.11-9.72,12.37-14.22,18.8-4.02,5.78-7.99,11.49-11.93,17.11-3.94,5.63-7.51,11.01-10.72,16.15-3.21,5.14-5.99,10.12-8.31,14.94-2.33,4.82-3.9,9.24-4.7,13.25-.32.96-.04,1.6.84,1.93.88.32,1.97.32,3.25,0,1.28-.16,2.73-.44,4.34-.84,1.6-.4,3.45-.93,5.54-1.57,1.12-.32,1.81-.32,2.05,0,.24.32.36.8.36,1.45-.32,1.45-1.05,2.73-2.17,3.86-.32.16-1.05.6-2.17,1.33-1.13.72-2.45,1.45-3.98,2.17-1.53.72-3.13,1.36-4.82,1.93-1.69.56-3.17.84-4.46.84-3.54-.16-6.03-1.73-7.47-4.7-1.45-2.97-1.61-6.31-.48-10,.64-2.57,1.53-5.18,2.65-7.83,1.12-2.65,2.65-5.71,4.58-9.16,1.93-3.46,4.38-7.43,7.35-11.93,2.97-4.5,6.71-9.8,11.21-15.91l7.47-9.88c-2.25-1.93-4.9-3.41-7.95-4.46-3.05-1.04-6.51-1.81-10.36-2.29-5.14,3.7-10.81,7.63-16.99,11.81-6.19,4.18-12.41,8.19-18.68,12.05s-12.45,7.39-18.56,10.6c-6.11,3.22-11.73,5.62-16.87,7.23-5.78,1.93-11.65,3.86-17.59,5.78-5.94,1.93-11.57,3.53-16.87,4.82-5.14,1.12-9.72,1.65-13.74,1.57-4.01-.08-7.15-1.17-9.4-3.25-2.09-2.09-3.17-4.66-3.25-7.71-.08-3.05,1-5.7,3.25-7.95,8.52-8.51,18.2-15.42,29.04-20.73,10.84-5.3,23.41-10.04,37.72-14.22,11.41-3.37,21.97-5.82,31.69-7.35,9.72-1.52,18.59-2.05,26.63-1.57,6.75-4.82,13.01-9.52,18.8-14.1,5.79-4.58,11.73-9.52,17.83-14.82,4.98-4.34,9.6-8.35,13.86-12.05,4.26-3.69,8.23-7.15,11.93-10.36,2.09-1.77,3.86-3.01,5.3-3.74,1.45-.72,2.81-1.24,4.1-1.57,1.28-.16,2.69-.16,4.22,0,1.53.16,2.93.24,4.22.24,2.41.16,4.13.56,5.18,1.21,1.04.64,1.72,1.41,2.05,2.29.32.88.36,1.69.12,2.41-.24.72-.45,1.25-.6,1.57ZM539.79,165.84c-6.11.32-12.05.93-17.83,1.81-5.78.88-11.25,1.97-16.39,3.25-12.86,2.89-25.35,6.95-37.48,12.17-12.13,5.22-23.26,12.41-33.38,21.57-1.77,1.77-2.49,3.45-2.17,5.06.32,1.6,2.09,2.33,5.3,2.17,1.61,0,3.49-.16,5.66-.48,2.17-.32,4.82-.84,7.95-1.57s6.79-1.73,10.97-3.01c4.18-1.29,9.16-3.05,14.94-5.3,12.53-4.82,23.98-10.44,34.34-16.87,10.36-6.42,19.72-12.69,28.08-18.8ZM576.66,149.94c-.81.64-1.85,1.45-3.13,2.41-2.25,1.77-5.38,4.18-9.4,7.23,5.62,1.61,10.36,3.78,14.22,6.51,4.01-5.3,8.07-10.64,12.17-16.03,4.1-5.38,7.75-10.16,10.97-14.34,3.86-4.98,7.47-9.72,10.84-14.22l-35.67,28.44Z"/>
        <path class="cls-2" d="M656.91,179.58c0,.96-.48,1.93-1.45,2.89-.96.96-1.85,1.69-2.65,2.17-1.93,1.29-4.7,3.05-8.31,5.3-3.62,2.25-7.43,4.46-11.45,6.63-4.02,2.17-7.87,4.06-11.57,5.66-3.7,1.61-6.67,2.41-8.92,2.41-.81,0-1.93-.08-3.37-.24s-2.85-.48-4.22-.96c-1.37-.48-2.53-1.08-3.49-1.81-.96-.72-1.45-1.72-1.45-3.01s.84-3.09,2.53-5.42c1.69-2.33,3.7-4.74,6.03-7.23,2.33-2.49,4.58-4.86,6.75-7.11,2.17-2.25,3.74-3.86,4.7-4.82-.96.16-2.33.36-4.1.6-1.77.24-3.61.57-5.54.96-1.93.4-3.74.81-5.42,1.2-1.69.4-2.85.84-3.49,1.33-1.29.96-3.54,2.45-6.75,4.46-3.22,2.01-6.55,4.02-10,6.03-3.46,2.01-6.79,3.82-10,5.42-3.21,1.61-5.46,2.41-6.75,2.41-.96,0-1.81-.28-2.53-.84-.72-.56-1.08-1.41-1.08-2.53,0-1.28.64-2.17,1.93-2.65,2.09-1.12,4.1-2.09,6.02-2.89,1.93-.8,3.94-1.84,6.02-3.13,2.89-1.6,5.74-3.21,8.56-4.82,2.81-1.6,5.58-3.29,8.31-5.06,0-1.77.56-3.21,1.69-4.34.32-.32,1.93-.76,4.82-1.33,2.89-.56,6.1-1.12,9.64-1.69,3.53-.56,6.87-1.04,10-1.45,3.13-.4,5.18-.6,6.14-.6.64,0,1.57.16,2.77.48,1.21.32,2.37.72,3.5,1.21,1.12.48,2.09,1.08,2.89,1.81.8.72,1.21,1.57,1.21,2.53,0,.64-.6,1.57-1.81,2.77s-2.57,2.49-4.1,3.86c-1.53,1.37-3.01,2.65-4.46,3.86-1.45,1.21-2.41,2.05-2.89,2.53-1.93,1.77-3.78,3.58-5.54,5.42-1.77,1.85-3.29,3.98-4.58,6.39,2.57-.64,5.94-1.89,10.12-3.74,4.18-1.85,8.43-3.81,12.77-5.91,4.34-2.09,8.23-3.93,11.69-5.54,3.45-1.6,5.74-2.41,6.87-2.41.64,0,.96.4.96,1.2Z"/>
        <path class="cls-2" d="M810.43,150.9c0,1.45-1.61,2.41-4.82,2.89-3.22.48-6.67.88-10.36,1.21-4.18.32-8.07.52-11.69.6-3.61.08-5.9.12-6.87.12-29.24.32-58.56.81-87.97,1.45-4.18,3.7-7.83,7.15-10.97,10.36-3.13,3.22-6.11,6.39-8.92,9.52-2.81,3.13-5.58,6.43-8.31,9.88-2.73,3.46-5.71,7.27-8.92,11.45-.16.16-.28.36-.36.6-.08.24-.2.52-.36.84-.48,1.29-.32,1.93.48,1.93.96,0,2.53-.48,4.7-1.45s4.78-2.25,7.83-3.86c3.05-1.45,6.39-3.13,10-5.06s7.27-3.94,10.96-6.03c3.86-2.09,7.31-4.22,10.36-6.39,3.05-2.17,5.74-4.13,8.07-5.91,2.33-1.77,4.3-3.21,5.9-4.34,1.6-1.12,2.89-1.69,3.86-1.69.8,0,1.69.16,2.65.48.96.32,1.45.81,1.45,1.45,0,.96-.48,1.81-1.45,2.53-.96.72-1.85,1.41-2.65,2.05-2.73,2.09-5.18,4.06-7.35,5.9-2.17,1.85-4.54,3.58-7.11,5.18-6.43,3.7-12.62,7.47-18.56,11.33-5.95,3.86-12.29,7.39-19.04,10.6-3.22,1.77-6.83,2.65-10.84,2.65-1.45,0-2.93-.32-4.46-.96-1.53-.64-2.93-1.45-4.22-2.41-1.29-.96-2.29-1.93-3.01-2.89-.72-.96-1-1.85-.84-2.65.16-.8.48-1.48.96-2.05.48-.56.96-1.24,1.45-2.05,3.05-4.01,6.34-7.79,9.88-11.33s7.07-7.15,10.6-10.85c2.09-1.93,3.62-3.49,4.58-4.7.96-1.21,1.89-2.29,2.77-3.25.88-.96,1.89-2.09,3.01-3.37,1.12-1.28,2.81-3.05,5.06-5.3-3.7,0-6.95.12-9.76.36-2.81.24-5.58.36-8.31.36-1.29,0-2.49-.24-3.62-.72-1.13-.48-1.69-1.21-1.69-2.17,0-1.77.64-2.89,1.93-3.37,1.28-.48,2.97-.72,5.06-.72l23.14-.24,7.95-7.95c3.21-3.21,5.86-5.94,7.95-8.19.96-.96,1.93-1.81,2.89-2.53.96-.72,2.17-1.08,3.61-1.08s3.01.28,4.7.84c1.69.56,2.53,1.49,2.53,2.77,0,.64-.48,1.57-1.45,2.77-.96,1.21-2.25,2.45-3.86,3.74-1.29,1.29-3.17,2.89-5.66,4.82-2.49,1.93-4.38,3.46-5.66,4.58,18.8-.16,37.07-.36,54.83-.6,17.75-.24,35.55-.36,53.38-.36h1.45c.8,0,1.61.08,2.41.24h.96c1.12,0,1.69.32,1.69.96Z"/>
        <path class="cls-2" d="M743.19,177.65c.96-.48,2.01-.76,3.13-.84,1.12-.08,1.93.16,2.41.72.48.56.28,1.49-.6,2.77-.88,1.29-2.85,2.89-5.9,4.82-4.02,2.57-7.63,4.86-10.84,6.87-3.22,2.01-6.39,3.9-9.52,5.66-3.13,1.77-6.43,3.42-9.88,4.94-3.46,1.53-7.59,3.01-12.41,4.46-2.73.8-5.06,1.16-6.99,1.08-1.93-.08-3.21-.44-3.86-1.08-1.29-.96-1.72-2.41-1.33-4.34.4-1.93,1.16-3.53,2.29-4.82,1.6-1.93,3.09-3.81,4.46-5.66,1.36-1.85,2.81-3.74,4.34-5.66,1.53-1.93,3.21-3.98,5.06-6.15,1.84-2.17,4.06-4.7,6.63-7.59.8-1.12,1.77-2.37,2.89-3.74,1.12-1.36,1.93-2.37,2.41-3.01.96-.8,2.25-1.08,3.86-.84,1.6.24,2.89,1,3.86,2.29,1.77,2.89,1.36,5.22-1.21,6.99-.81.64-1.53,1.17-2.17,1.57-.64.4-1.29.93-1.93,1.57-1.77,1.93-3.54,3.98-5.3,6.15-1.77,2.17-3.46,4.3-5.06,6.39-1.61,2.09-2.97,3.94-4.1,5.54-1.13,1.61-2.01,2.73-2.65,3.37,4.66-1.45,9.08-3.13,13.25-5.06,4.18-1.93,8.07-3.89,11.69-5.91,3.61-2.01,6.87-3.93,9.76-5.78,2.89-1.85,5.46-3.41,7.71-4.7ZM746.56,136.2c-1.45,1.77-2.89,3.46-4.34,5.06-1.45,1.61-2.49,2.73-3.13,3.37-2.41,2.73-4.66,3.7-6.75,2.89-.81-.48-1.45-.92-1.93-1.33-.48-.4-.57-1.08-.24-2.05.64-1.28,1.69-3.13,3.13-5.54.8-1.12,1.57-2.21,2.29-3.25.72-1.04,1.24-1.89,1.57-2.53.8-1.12,1.77-1.93,2.89-2.41,1.12-.48,2.81-.4,5.06.24,1.77.64,2.65,1.45,2.65,2.41s-.4,2.01-1.21,3.13Z"/>
        <path class="cls-2" d="M790.18,179.58c0,1.13-1.08,2.17-3.25,3.13s-3.74,1.61-4.7,1.93c-2.73.81-5.3,1.73-7.71,2.77-2.41,1.05-4.82,2.13-7.23,3.25-1.13,2.09-3.34,5.22-6.63,9.4-3.29,4.18-6.99,8.39-11.09,12.65-4.1,4.26-8.2,7.95-12.29,11.09-4.1,3.13-7.43,4.7-10,4.7-1.77,0-3.05-.6-3.86-1.81-.81-1.21-1.21-2.45-1.21-3.74,0-3.05,1.45-6.43,4.34-10.12,2.89-3.7,6.34-7.27,10.36-10.72,4.01-3.45,8.15-6.63,12.41-9.52,4.26-2.89,7.83-5.14,10.72-6.75,1.6-3.21,3.17-6.47,4.7-9.76,1.52-3.29,2.85-6.63,3.98-10-2.73,2.41-5.26,4.5-7.59,6.27-2.33,1.77-4.74,3.42-7.23,4.94-2.49,1.53-5.1,3.13-7.83,4.82-2.73,1.69-5.78,3.66-9.16,5.9-3.05,1.77-5.14,2.09-6.27.96-.48-.48-.44-1.33.12-2.53.56-1.21,1.57-2.21,3.01-3.01,3.53-1.93,7.23-4.25,11.09-6.99,3.86-2.73,7.43-5.38,10.72-7.95,3.29-2.57,6.1-4.86,8.43-6.87,2.33-2.01,3.81-3.33,4.46-3.98.8-.64,1.57-1.24,2.29-1.81.72-.56,1.72-.84,3.01-.84,1.77,0,3.21.4,4.34,1.2,1.12.81,1.69,2.01,1.69,3.62,0,1.45-.32,3.13-.96,5.06-.64,1.93-1.41,3.94-2.29,6.02-.88,2.09-1.77,4.14-2.65,6.15-.88,2.01-1.65,3.66-2.29,4.94,2.09-.8,4.74-1.81,7.95-3.01,3.21-1.21,5.86-1.81,7.95-1.81,1.77,0,2.65.81,2.65,2.41ZM753.55,197.9c-3.7,2.57-6.39,4.62-8.07,6.15s-3.17,2.93-4.46,4.22c-2.73,2.73-4.98,5.3-6.75,7.71-1.77,2.41-3.21,4.42-4.34,6.02,2.73-2.41,6.3-5.83,10.72-10.24,4.42-4.42,8.71-9.04,12.89-13.86Z"/>
        <path class="cls-2" d="M943.94,150.9c0,1.45-1.61,2.41-4.82,2.89-3.22.48-6.67.88-10.36,1.21-4.18.32-8.07.52-11.69.6-3.61.08-5.9.12-6.87.12-29.24.32-58.56.81-87.97,1.45-4.18,3.7-7.83,7.15-10.97,10.36-3.13,3.22-6.11,6.39-8.92,9.52-2.81,3.13-5.58,6.43-8.31,9.88-2.73,3.46-5.71,7.27-8.92,11.45-.16.16-.28.36-.36.6-.08.24-.2.52-.36.84-.48,1.29-.32,1.93.48,1.93.96,0,2.53-.48,4.7-1.45s4.78-2.25,7.83-3.86c3.05-1.45,6.39-3.13,10-5.06s7.27-3.94,10.96-6.03c3.86-2.09,7.31-4.22,10.36-6.39,3.05-2.17,5.74-4.13,8.07-5.91,2.33-1.77,4.3-3.21,5.9-4.34,1.6-1.12,2.89-1.69,3.86-1.69.8,0,1.69.16,2.65.48.96.32,1.45.81,1.45,1.45,0,.96-.48,1.81-1.45,2.53-.96.72-1.85,1.41-2.65,2.05-2.73,2.09-5.18,4.06-7.35,5.9-2.17,1.85-4.54,3.58-7.11,5.18-6.43,3.7-12.62,7.47-18.56,11.33-5.95,3.86-12.29,7.39-19.04,10.6-3.22,1.77-6.83,2.65-10.84,2.65-1.45,0-2.93-.32-4.46-.96-1.53-.64-2.93-1.45-4.22-2.41-1.29-.96-2.29-1.93-3.01-2.89-.72-.96-1-1.85-.84-2.65.16-.8.48-1.48.96-2.05.48-.56.96-1.24,1.45-2.05,3.05-4.01,6.34-7.79,9.88-11.33s7.07-7.15,10.6-10.85c2.09-1.93,3.62-3.49,4.58-4.7.96-1.21,1.89-2.29,2.77-3.25.88-.96,1.89-2.09,3.01-3.37,1.12-1.28,2.81-3.05,5.06-5.3-3.7,0-6.95.12-9.76.36-2.81.24-5.58.36-8.31.36-1.29,0-2.49-.24-3.62-.72-1.13-.48-1.69-1.21-1.69-2.17,0-1.77.64-2.89,1.93-3.37,1.28-.48,2.97-.72,5.06-.72l23.14-.24,7.95-7.95c3.21-3.21,5.86-5.94,7.95-8.19.96-.96,1.93-1.81,2.89-2.53.96-.72,2.17-1.08,3.61-1.08s3.01.28,4.7.84c1.69.56,2.53,1.49,2.53,2.77,0,.64-.48,1.57-1.45,2.77-.96,1.21-2.25,2.45-3.86,3.74-1.29,1.29-3.17,2.89-5.66,4.82-2.49,1.93-4.38,3.46-5.66,4.58,18.8-.16,37.07-.36,54.83-.6,17.75-.24,35.55-.36,53.38-.36h1.45c.8,0,1.61.08,2.41.24h.96c1.12,0,1.69.32,1.69.96Z"/>
        <path class="cls-2" d="M918.39,172.83c-.48.32-1.25.93-2.29,1.81-1.05.89-2.29,1.85-3.74,2.89-1.45,1.05-2.93,2.13-4.46,3.25-1.53,1.13-3.01,2.17-4.46,3.13-2.73,1.77-5.62,3.58-8.68,5.42-3.05,1.85-5.99,3.5-8.8,4.94-2.81,1.45-5.34,2.65-7.59,3.62-2.25.96-3.94,1.53-5.06,1.69-1.29.16-2.65.04-4.1-.36-1.45-.4-2.73-.96-3.86-1.69-1.12-.72-2.01-1.48-2.65-2.29-.64-.8-.96-1.52-.96-2.17,0-1.28.36-2.69,1.08-4.22.72-1.53,1.48-3.01,2.29-4.46-1.61,1.29-4.22,3.17-7.83,5.66-3.61,2.49-7.39,5.06-11.33,7.71-3.94,2.65-7.63,4.94-11.09,6.87-3.46,1.93-5.75,2.89-6.87,2.89-3.7,0-6.51-.76-8.43-2.29-1.93-1.53-2.49-3.65-1.69-6.39,1.45-4.5,3.62-8.63,6.51-12.41,2.89-3.77,5.94-7.03,9.16-9.76,3.21-2.73,6.27-4.98,9.16-6.75,2.89-1.77,5.14-3.05,6.75-3.86,2.25-.8,4.46-1.45,6.63-1.93,2.17-.48,4.38-.08,6.63,1.21,1.6.96,3.29,2.01,5.06,3.13l3.13,2.17c.48-.48,1.08-1.2,1.81-2.17.72-.96,1.48-1.6,2.29-1.93.32-.16,1.28-.04,2.89.36,1.6.4,2.89.84,3.86,1.33,1.45.81,2.33,1.81,2.65,3.01.32,1.21,0,2.45-.96,3.74-2.25,2.73-4.06,5.1-5.42,7.11-1.37,2.01-2.37,3.66-3.01,4.94-.64.96-.93,1.69-.84,2.17.08.48.36.81.84.96.48.16,1,.16,1.57,0,.56-.16,1.08-.32,1.57-.48,3.69-1.45,7.59-3.25,11.69-5.42s7.95-4.3,11.57-6.39c3.62-2.09,6.79-4.01,9.52-5.78,2.73-1.77,4.74-3.05,6.03-3.86l1.45,4.58ZM861.76,175.96c0-.8-.64-1.53-1.93-2.17-1.29-.64-2.33-.96-3.13-.96-1.61,0-3.98,1.12-7.11,3.37-3.13,2.25-6.27,4.82-9.4,7.71-3.13,2.89-5.91,5.75-8.31,8.55-2.41,2.81-3.62,4.78-3.62,5.91,0,.64.32.96.96.96s2.73-1.04,6.27-3.13c3.53-2.09,7.23-4.46,11.09-7.11,3.86-2.65,7.35-5.26,10.48-7.83,3.13-2.57,4.7-4.34,4.7-5.3Z"/>
      </g>
    </g>
  </g>
</svg>